<?xml version="1.0" standalone="no"?><!DOCTYPE svg PUBLIC "-//W3C//DTD SVG 1.1//EN" "http://www.w3.org/Graphics/SVG/1.1/DTD/svg11.dtd"><svg t="1730166657258" class="icon" viewBox="0 0 1024 1024" version="1.1" xmlns="http://www.w3.org/2000/svg" p-id="11717" xmlns:xlink="http://www.w3.org/1999/xlink" width="200" height="200"><path d="M298.688 170.688h42.688v42.688h-42.688z" fill="#FFFFFF" p-id="11718"></path><path d="M341.312 170.688H384v42.688h-42.688zM384 170.688h42.688v42.688H384zM426.688 170.688h42.688v42.688h-42.688zM256 213.312h42.688V256H256z" fill="#FFFFFF" p-id="11719"></path><path d="M298.688 213.312h42.688V256h-42.688z" fill="#FFFFFF" p-id="11720"></path><path d="M341.312 213.312H384V256h-42.688zM384 213.312h42.688V256H384zM426.688 213.312h42.688V256h-42.688z" fill="#FFFFFF" p-id="11721"></path><path d="M469.312 213.312H512V256h-42.688zM170.688 256h42.688v42.688h-42.688z" fill="#FFFFFF" p-id="11722"></path><path d="M213.312 256H256v42.688h-42.688zM256 256h42.688v42.688H256zM298.688 256h42.688v42.688h-42.688zM426.688 256h42.688v42.688h-42.688zM128 298.688h42.688v42.688H128zM170.688 298.688h42.688v42.688h-42.688z" fill="#FFFFFF" p-id="11723"></path><path d="M213.312 298.688H256v42.688h-42.688zM256 298.688h42.688v42.688H256z" fill="#FFFFFF" p-id="11724"></path><path d="M341.312 298.688H384v42.688h-42.688zM384 298.688h42.688v42.688H384zM469.312 298.688H512v42.688h-42.688z" fill="#FFFCD9" p-id="11725"></path><path d="M512 213.312h42.688V256H512zM512 256h42.688v42.688H512zM512 298.688h42.688v42.688H512zM554.688 170.688h42.688v42.688h-42.688z" fill="#FFFFFF" p-id="11726"></path><path d="M554.688 213.312h42.688V256h-42.688zM597.312 170.688H640v42.624h-42.688z" fill="#FFFFFF" p-id="11727"></path><path d="M597.312 213.312H640V256h-42.688zM597.312 256H640v42.688h-42.688zM597.312 298.688H640v42.688h-42.688zM640 213.312h42.688V256H640zM682.688 213.312h42.624V256h-42.624zM640 170.688h42.688v42.624H640z" fill="#FFFFFF" p-id="11728"></path><path d="M682.688 170.688h42.688v42.624h-42.688zM682.688 298.688h42.688v42.688h-42.688z" fill="#FFFCD9" p-id="11729"></path><path d="M725.312 256H768v42.688h-42.688z" fill="#FFFFFF" p-id="11730"></path><path d="M768 256h42.688v42.688H768z" fill="#FFFCD9" p-id="11731"></path><path d="M768 298.688h42.688v42.688H768z" fill="#FFFFFF" p-id="11732"></path><path d="M810.688 256h42.688v42.688h-42.688z" fill="#FFFCD9" p-id="11733"></path><path d="M810.688 298.688h42.688v42.688h-42.688z" fill="#FFFFFF" p-id="11734"></path><path d="M853.312 298.688H896v42.688h-42.688z" fill="#FFFCD9" p-id="11735"></path><path d="M682.688 384h42.688v42.688h-42.688zM682.688 426.688h42.688v42.688h-42.688z" fill="#FFFFFF" p-id="11736"></path><path d="M682.688 469.312h42.688V512h-42.688zM725.312 384H768v42.688h-42.688z" fill="#FFFFFF" p-id="11737"></path><path d="M725.312 426.688H768v42.688h-42.688z" fill="#FFFFFF" p-id="11738"></path><path d="M725.312 469.312H768V512h-42.688zM682.688 512h42.688v42.688h-42.688z" fill="#FFFFFF" p-id="11739"></path><path d="M725.312 512H768v42.688h-42.688z" fill="#FFFFFF" p-id="11740"></path><path d="M768 384h42.688v42.688H768zM768 426.688h42.688v42.688H768z" fill="#FFFCD9" p-id="11741"></path><path d="M768 469.312h42.688V512H768zM768 512h42.688v42.688H768zM682.688 554.688h42.688v42.688h-42.688z" fill="#FFFFFF" p-id="11742"></path><path d="M682.688 597.312h42.688V640h-42.688z" fill="#FFFFFF" p-id="11743"></path><path d="M725.312 554.688H768v42.688h-42.688z" fill="#FFFFFF" p-id="11744"></path><path d="M725.312 597.312H768V640h-42.688zM682.688 640h42.688v42.688h-42.688z" fill="#FFFFFF" p-id="11745"></path><path d="M725.312 640H768v42.688h-42.688zM768 554.688h42.688v42.688H768z" fill="#FFFFFF" p-id="11746"></path><path d="M768 597.312h42.688V640H768zM768 640h42.688v42.688H768zM682.688 682.688h42.688v42.688h-42.688z" fill="#FFFFFF" p-id="11747"></path><path d="M725.312 682.688H768v42.688h-42.688zM768 682.688h42.688v42.688H768z" fill="#FFFFFF" p-id="11748"></path><path d="M682.688 725.312h42.688V768h-42.688z" fill="#FFFFFF" p-id="11749"></path><path d="M725.312 725.312H768V768h-42.688z" fill="#FFFFFF" p-id="11750"></path><path d="M725.312 768H768v42.688h-42.688z" fill="#FFFCD9" p-id="11751"></path><path d="M768 725.312h42.688V768H768z" fill="#FFFFFF" p-id="11752"></path><path d="M768 768h42.688v42.688H768zM768 810.688h42.688v42.688H768z" fill="#FFFCD9" p-id="11753"></path><path d="M810.688 469.312h42.688V512h-42.688zM810.688 512h42.688v42.688h-42.688zM810.688 554.688h42.688v42.688h-42.688z" fill="#FFFFFF" p-id="11754"></path><path d="M810.688 597.312h42.688V640h-42.688zM810.688 640h42.688v42.688h-42.688zM810.688 682.688h42.688v42.688h-42.688z" fill="#FFFFFF" p-id="11755"></path><path d="M810.688 725.312h42.688V768h-42.688zM810.688 768h42.688v42.688h-42.688z" fill="#FFFCD9" p-id="11756"></path><path d="M853.312 384H896v42.688h-42.688zM853.312 426.688H896v42.688h-42.688z" fill="#FFFFFF" p-id="11757"></path><path d="M853.312 469.312H896V512h-42.688z" fill="#FFFFFF" p-id="11758"></path><path d="M896 384h42.688v42.688H896zM896 426.688h42.688v42.688H896z" fill="#FFFCD9" p-id="11759"></path><path d="M896 469.312h42.688V512H896z" fill="#FFFCD9" p-id="11760"></path><path d="M853.312 512H896v42.688h-42.688z" fill="#FFFFFF" p-id="11761"></path><path d="M896 512h42.688v42.688H896zM938.688 469.312h42.688V512h-42.688zM938.688 512h42.688v42.688h-42.688z" fill="#FFFCD9" p-id="11762"></path><path d="M853.312 554.688H896v42.688h-42.688z" fill="#FFFFFF" p-id="11763"></path><path d="M853.312 597.312H896V640h-42.688z" fill="#FFFFFF" p-id="11764"></path><path d="M896 554.688h42.688v42.688H896z" fill="#FFFCD9" p-id="11765"></path><path d="M896 597.312h42.688V640H896z" fill="#FFFCD9" p-id="11766"></path><path d="M853.312 640H896v42.688h-42.688z" fill="#FFFFFF" p-id="11767"></path><path d="M896 640h42.688v42.688H896zM938.688 554.688h42.688v42.688h-42.688z" fill="#FFFCD9" p-id="11768"></path><path d="M938.688 597.312h42.688V640h-42.688zM938.688 640h42.688v42.688h-42.688zM853.312 682.688H896v42.688h-42.688zM896 682.688h42.688v42.688H896z" fill="#FFFCD9" p-id="11769"></path><path d="M853.312 725.312H896V768h-42.688zM853.312 768H896v42.688h-42.688zM896 725.312h42.688V768H896z" fill="#FFFCD9" p-id="11770"></path><path d="M85.312 384H128v42.688h-42.688zM128 384h42.688v42.688H128zM170.688 384h42.688v42.688h-42.688z" fill="#FFFFFF" p-id="11771"></path><path d="M256 384h42.688v42.688H256z" fill="#FFFCD9" p-id="11772"></path><path d="M298.688 384h42.688v42.688h-42.688z" fill="#FFFFFF" p-id="11773"></path><path d="M341.312 384H384v42.688h-42.688zM384 384h42.688v42.688H384z" fill="#FFFFFF" p-id="11774"></path><path d="M469.312 384H512v42.688h-42.688z" fill="#FFFCD9" p-id="11775"></path><path d="M85.312 426.688H128v42.688h-42.688zM128 426.688h42.688v42.688H128z" fill="#FFFFFF" p-id="11776"></path><path d="M213.312 426.688H256v42.688h-42.688z" fill="#FFFCD9" p-id="11777"></path><path d="M256 426.688h42.688v42.688H256zM298.688 426.688h42.688v42.688h-42.688z" fill="#FFFFFF" p-id="11778"></path><path d="M341.312 426.688H384v42.688h-42.688z" fill="#FFFFFF" p-id="11779"></path><path d="M426.688 426.688h42.688v42.688h-42.688z" fill="#FFFCD9" p-id="11780"></path><path d="M469.312 426.688H512v42.688h-42.688zM42.688 469.312h42.688V512H42.688zM213.312 469.312H256V512h-42.688zM298.688 469.312h42.688V512h-42.688zM384 469.312h42.688V512H384z" fill="#FFFFFF" p-id="11781"></path><path d="M426.688 469.312h42.688V512h-42.688zM512 384h42.688v42.688H512zM512 426.688h42.688v42.688H512z" fill="#FFFFFF" p-id="11782"></path><path d="M512 469.312h42.688V512H512zM42.688 512h42.688v42.688H42.688zM213.312 512H256v42.688h-42.688zM298.688 512h42.688v42.688h-42.688zM384 512h42.688v42.688H384zM426.688 512h42.688v42.688h-42.688z" fill="#FFFFFF" p-id="11783"></path><path d="M554.688 384h42.688v42.688h-42.688zM554.688 426.688h42.688v42.688h-42.688z" fill="#FFFCD9" p-id="11784"></path><path d="M597.312 469.312H640V512h-42.688zM554.688 512h42.688v42.688h-42.688z" fill="#FFFFFF" p-id="11785"></path><path d="M597.312 512H640v42.688h-42.688zM42.688 554.688h42.688v42.688H42.688zM128 554.688h42.688v42.688H128zM213.312 554.688H256v42.688h-42.688zM298.688 554.688h42.688v42.688h-42.688zM384 554.688h42.688v42.688H384zM426.688 554.688h42.688v42.688h-42.688z" fill="#FFFFFF" p-id="11786"></path><path d="M42.688 597.312h42.688V640H42.688zM128 597.312h42.688V640H128zM213.312 597.312H256V640h-42.688zM298.688 597.312h42.688V640h-42.688zM426.688 597.312h42.688V640h-42.688zM512 554.688h42.688v42.688H512z" fill="#FFFFFF" p-id="11787"></path><path d="M512 597.312h42.688V640H512zM42.688 640h42.688v42.688H42.688z" fill="#FFFFFF" p-id="11788"></path><path d="M85.312 640H128v42.688h-42.688zM128 640h42.688v42.688H128zM170.688 640h42.688v42.688h-42.688z" fill="#FFFFFF" p-id="11789"></path><path d="M213.312 640H256v42.688h-42.688zM256 640h42.688v42.688H256zM298.688 640h42.688v42.688h-42.688z" fill="#FFFFFF" p-id="11790"></path><path d="M341.312 640H384v42.688h-42.688zM384 640h42.688v42.688H384zM426.688 640h42.688v42.688h-42.688z" fill="#FFFFFF" p-id="11791"></path><path d="M469.312 640H512v42.688h-42.688zM512 640h42.688v42.688H512zM597.312 554.688H640v42.688h-42.688z" fill="#FFFFFF" p-id="11792"></path><path d="M597.312 597.312H640V640h-42.688zM554.688 640h42.688v42.688h-42.688z" fill="#FFFFFF" p-id="11793"></path><path d="M597.312 640H640v42.688h-42.688zM85.312 682.688H128v42.688h-42.688zM128 682.688h42.688v42.688H128zM170.688 682.688h42.688v42.688h-42.688z" fill="#FFFFFF" p-id="11794"></path><path d="M213.312 682.688H256v42.688h-42.688zM256 682.688h42.688v42.688H256zM298.688 682.688h42.688v42.688h-42.688z" fill="#FFFFFF" p-id="11795"></path><path d="M341.312 682.688H384v42.688h-42.688zM384 682.688h42.688v42.688H384zM426.688 682.688h42.688v42.688h-42.688z" fill="#FFFFFF" p-id="11796"></path><path d="M469.312 682.688H512v42.688h-42.688zM512 682.688h42.688v42.688H512zM554.688 682.688h42.688v42.688h-42.688z" fill="#FFFFFF" p-id="11797"></path><path d="M597.312 682.688H640v42.688h-42.688zM85.312 725.312H128V768h-42.688zM128 725.312h42.688V768H128zM170.688 725.312h42.688V768h-42.688zM341.312 725.312H384V768h-42.688zM384 725.312h42.688V768H384zM426.688 725.312h42.688V768h-42.688z" fill="#FFFFFF" p-id="11798"></path><path d="M469.312 725.312H512V768h-42.688z" fill="#FFFFFF" p-id="11799"></path><path d="M128 768h42.688v42.688H128z" fill="#FFFCD9" p-id="11800"></path><path d="M384 768h42.688v42.688H384zM426.688 768h42.688v42.688h-42.688z" fill="#FFFFFF" p-id="11801"></path><path d="M469.312 768H512v42.688h-42.688zM512 725.312h42.688V768H512zM512 768h42.688v42.688H512zM554.688 725.312h42.688V768h-42.688z" fill="#FFFFFF" p-id="11802"></path><path d="M426.688 810.688h42.688v42.688h-42.688z" fill="#FFFCD9" p-id="11803"></path><path d="M469.312 810.688H512v42.688h-42.688z" fill="#FFFCD9" p-id="11804"></path><path d="M213.312 768H256v42.688h-42.688zM256 768h42.688v42.688H256zM298.688 768h42.688v42.688h-42.688z" fill="#FFFFFF" p-id="11805"></path><path d="M213.312 810.688H256v42.688h-42.688zM256 810.688h42.688v42.688H256zM298.688 810.688h42.688v42.688h-42.688z" fill="#FFFCD9" p-id="11806"></path><path d="M341.312 810.688H384v42.688h-42.688z" fill="#FFFCD9" p-id="11807"></path><path d="M597.312 768H640v42.688h-42.688z" fill="#FFFFFF" p-id="11808"></path><path d="M554.688 810.688h42.688v42.688h-42.688z" fill="#FFFCD9" p-id="11809"></path><path d="M597.312 810.688H640v42.688h-42.688zM298.688 853.312h42.688V896h-42.688z" fill="#FFFCD9" p-id="11810"></path><path d="M341.312 853.312H384V896h-42.688zM384 853.312h42.688V896H384zM512 853.312h42.688V896H512zM554.688 853.312h42.688V896h-42.688z" fill="#FFFCD9" p-id="11811"></path><path d="M597.312 853.312H640V896h-42.688zM682.688 853.312h42.688V896h-42.688z" fill="#FFFCD9" p-id="11812"></path><path d="M682.688 810.688h42.688v42.688h-42.688zM512 810.688h42.688v42.688H512z" fill="#FFFCD9" p-id="11813"></path><path d="M554.688 768h42.688v42.688h-42.688zM597.312 725.312H640V768h-42.688zM682.688 768h42.688v42.688h-42.688z" fill="#FFFFFF" p-id="11814"></path><path d="M725.312 810.688H768v42.688h-42.688zM426.688 853.312h42.688V896h-42.688z" fill="#FFFCD9" p-id="11815"></path><path d="M469.312 853.312H512V896h-42.688z" fill="#FFFCD9" p-id="11816"></path><path d="M298.688 128h42.688v42.688h-42.688z" fill="#FFFFFF" p-id="11817"></path><path d="M341.312 128H384v42.688h-42.688zM384 128h42.688v42.688H384zM128 341.312h42.688V384H128zM170.688 341.312h42.688V384h-42.688z" fill="#FFFFFF" p-id="11818"></path><path d="M213.312 341.312H256V384h-42.688z" fill="#FFFFFF" p-id="11819"></path><path d="M298.688 341.312h42.688V384h-42.688z" fill="#FFFCD9" p-id="11820"></path><path d="M341.312 341.312H384V384h-42.688zM384 341.312h42.688V384H384z" fill="#FFFFFF" p-id="11821"></path><path d="M469.312 341.312H512V384h-42.688z" fill="#FFFCD9" p-id="11822"></path><path d="M512 341.312h42.688V384H512z" fill="#FFFFFF" p-id="11823"></path><path d="M597.312 128H640v42.688h-42.688z" fill="#FFFCD9" p-id="11824"></path><path d="M597.312 341.312H640V384h-42.688z" fill="#FFFFFF" p-id="11825"></path><path d="M640 128h42.688v42.688H640zM640 298.688h42.688v42.688H640z" fill="#FFFCD9" p-id="11826"></path><path d="M640 341.312h42.688V384H640zM640 384h42.688v42.688H640zM640 426.688h42.688v42.688H640z" fill="#FFFFFF" p-id="11827"></path><path d="M640 469.312h42.688V512H640zM640 512h42.688v42.688H640zM640 554.688h42.688v42.688H640z" fill="#FFFFFF" p-id="11828"></path><path d="M640 597.312h42.688V640H640zM640 640h42.688v42.688H640z" fill="#FFFFFF" p-id="11829"></path><path d="M682.688 128h42.688v42.688h-42.688z" fill="#FFFCD9" p-id="11830"></path><path d="M682.688 341.312h42.688V384h-42.688z" fill="#FFFFFF" p-id="11831"></path><path d="M725.312 213.312H768V256h-42.688zM725.312 341.312H768V384h-42.688z" fill="#FFFCD9" p-id="11832"></path><path d="M640 682.688h42.688v42.688H640z" fill="#FFFFFF" p-id="11833"></path><path d="M640 725.312h42.688V768H640zM640 768h42.688v42.688H640z" fill="#FFFFFF" p-id="11834"></path><path d="M640 810.688h42.688v42.688H640z" fill="#FFFCD9" p-id="11835"></path><path d="M810.688 341.312h42.688V384h-42.688z" fill="#FFFFFF" p-id="11836"></path><path d="M853.312 341.312H896V384h-42.688zM640 853.312h42.688V896H640z" fill="#FFFCD9" p-id="11837"></path><path d="M85.312 469.312H128V512h-42.688zM128 469.312h42.688V512H128zM170.688 469.312h42.688V512h-42.688zM256 469.312h42.688V512H256zM341.312 469.312H384V512h-42.688zM469.312 469.312H512V512h-42.688zM85.312 512H128v42.688h-42.688zM128 512h42.688v42.688H128zM170.688 512h42.688v42.688h-42.688zM256 512h42.688v42.688H256zM341.312 512H384v42.688h-42.688zM469.312 512H512v42.688h-42.688zM512 512h42.688v42.688H512zM554.688 469.312h42.688V512h-42.688zM85.312 554.688H128v42.688h-42.688zM170.688 554.688h42.688v42.688h-42.688zM256 554.688h42.688v42.688H256zM341.312 554.688H384v42.688h-42.688zM469.312 554.688H512v42.688h-42.688z" fill="#FFFFFF" p-id="11838"></path><path d="M85.312 597.312H128V640h-42.688zM170.688 597.312h42.688V640h-42.688zM256 597.312h42.688V640H256zM341.312 597.312H384V640h-42.688zM384 597.312h42.688V640H384zM469.312 597.312H512V640h-42.688zM554.688 554.688h42.688v42.688h-42.688z" fill="#FFFFFF" p-id="11839"></path><path d="M554.688 597.312h42.688V640h-42.688zM213.312 725.312H256V768h-42.688zM256 725.312h42.688V768H256zM298.688 725.312h42.688V768h-42.688z" fill="#FFFFFF" p-id="11840"></path><path d="M170.688 768h42.688v42.688h-42.688z" fill="#FFFCD9" p-id="11841"></path><path d="M341.312 768H384v42.688h-42.688z" fill="#FFFFFF" p-id="11842"></path><path d="M384 810.688h42.688v42.688H384z" fill="#FFFCD9" p-id="11843"></path><path d="M256 170.688h42.688v42.688H256zM469.312 170.688H512v42.688h-42.688zM170.688 213.312h42.688V256h-42.688z" p-id="11844"></path><path d="M213.312 213.312H256V256h-42.688zM128 256h42.688v42.688H128zM341.312 256H384v42.688h-42.688zM384 256h42.688v42.688H384zM469.312 256H512v42.688h-42.688zM85.312 298.688H128v42.688h-42.688zM298.688 298.688h42.688v42.688h-42.688zM426.688 298.688h42.688v42.688h-42.688zM512 170.688h42.688v42.688H512zM554.688 256h42.688v42.688h-42.688zM554.688 298.688h42.688v42.688h-42.688zM640 256h42.688v42.688H640zM725.312 170.688H768v42.624h-42.688zM298.688 85.312h42.688V128h-42.688z" p-id="11845"></path><path d="M341.312 85.312H384V128h-42.688zM384 85.312h42.688V128H384zM597.312 85.312H640V128h-42.688zM640 85.312h42.688V128H640zM682.688 85.312h42.688V128h-42.688zM725.312 298.688H768v42.688h-42.688zM768 213.312h42.688V256H768zM810.688 213.312h42.688V256h-42.688zM853.312 256H896v42.688h-42.688zM896 298.688h42.688v42.688H896zM810.688 384h42.688v42.688h-42.688zM810.688 426.688h42.688v42.688h-42.688zM810.688 810.688h42.688v42.688h-42.688zM938.688 384h42.688v42.688h-42.688zM938.688 426.688h42.688v42.688h-42.688zM938.688 682.688h42.688v42.688h-42.688zM42.688 384h42.688v42.688H42.688zM213.312 384H256v42.688h-42.688zM426.688 384h42.688v42.688h-42.688zM42.688 426.688h42.688v42.688H42.688zM170.688 426.688h42.688v42.688h-42.688zM384 426.688h42.688v42.688H384zM597.312 384H640v42.688h-42.688zM597.312 426.688H640v42.688h-42.688zM42.688 682.688h42.688v42.688H42.688z" p-id="11846"></path><path d="M42.688 725.312h42.688V768H42.688zM85.312 768H128v42.688h-42.688zM170.688 810.688h42.688v42.688h-42.688z" p-id="11847"></path><path d="M213.312 853.312H256V896h-42.688zM256 853.312h42.688V896H256zM298.688 896h42.688v42.688h-42.688z" p-id="11848"></path><path d="M341.312 896H384v42.688h-42.688zM384 896h42.688v42.688H384zM426.688 896h42.688v42.688h-42.688z" p-id="11849"></path><path d="M469.312 896H512v42.688h-42.688zM512 896h42.688v42.688H512zM554.688 896h42.688v42.688h-42.688z" p-id="11850"></path><path d="M597.312 896H640v42.688h-42.688zM682.688 896h42.688v42.688h-42.688zM725.312 853.312H768V896h-42.688zM896 768h42.688v42.688H896zM853.312 810.688H896v42.688h-42.688zM938.688 725.312h42.688V768h-42.688zM768 853.312h42.688V896H768zM256 128h42.688v42.688H256zM426.688 128h42.688v42.688h-42.688zM85.312 341.312H128V384h-42.688zM256 341.312h42.688V384H256zM426.688 341.312h42.688V384h-42.688zM0 469.312h42.688V512H0zM0 512h42.688v42.688H0zM554.688 128h42.688v42.688h-42.688zM554.688 341.312h42.688V384h-42.688zM0 554.688h42.688v42.688H0z" p-id="11851"></path><path d="M0 597.312h42.688V640H0zM0 640h42.688v42.688H0zM682.688 256h42.688v42.688h-42.688zM725.312 128H768v42.688h-42.688zM768 341.312h42.688V384H768zM896 341.312h42.688V384H896zM981.312 469.312H1024V512h-42.688zM981.312 512H1024v42.688h-42.688zM981.312 554.688H1024v42.688h-42.688z" p-id="11852"></path><path d="M981.312 597.312H1024V640h-42.688zM981.312 640H1024v42.688h-42.688zM640 896h42.688v42.688H640zM128 810.688h42.688v42.688H128z" p-id="11853"></path></svg>